<?xml version="1.0" standalone="no"?>
<!DOCTYPE svg PUBLIC "-//W3C//DTD SVG 20010904//EN"
 "http://www.w3.org/TR/2001/REC-SVG-20010904/DTD/svg10.dtd">
<svg version="1.0" xmlns="http://www.w3.org/2000/svg"
 width="423.000000pt" height="412.000000pt" viewBox="0 0 423.000000 412.000000"
 preserveAspectRatio="xMidYMid meet">

<g transform="translate(0.000000,412.000000) scale(0.100000,-0.100000)"
fill="#000000" stroke="none">
<path d="M325 3850 l-110 -110 1745 -1745 1745 -1745 115 115 115 115 -1740
1740 c-957 957 -1745 1740 -1750 1740 -6 0 -60 -50 -120 -110z"/>
<path d="M1400 3255 c0 -2 383 -387 851 -856 711 -710 854 -849 865 -837 15
15 813 1473 851 1555 29 63 23 97 -21 124 -30 18 -70 19 -1288 19 -692 0
-1258 -2 -1258 -5z"/>
<path d="M592 2093 c3 -1139 -2 -1055 75 -1108 l38 -25 1025 0 1025 0 -160
160 -160 160 -757 0 -758 0 0 85 0 85 672 0 673 0 -830 830 c-456 457 -833
830 -838 830 -4 0 -6 -458 -5 -1017z"/>
<path d="M845 776 c-132 -33 -218 -126 -246 -267 -22 -110 40 -253 137 -318
62 -41 114 -56 194 -55 119 1 221 65 280 176 30 56 34 72 34 143 1 71 -3 88
-32 147 -47 97 -122 154 -230 177 -63 13 -72 13 -137 -3z m141 -165 c77 -35
117 -117 95 -193 -15 -51 -43 -83 -93 -109 -45 -23 -77 -24 -125 -4 -71 30
-105 80 -105 155 0 77 37 130 109 156 51 18 71 17 119 -5z"/>
<path d="M2492 776 c-142 -35 -252 -172 -252 -316 0 -196 195 -359 384 -321
111 23 190 82 237 177 31 64 38 182 15 250 -34 100 -128 185 -233 210 -69 16
-82 16 -151 0z m135 -161 c71 -30 105 -80 105 -155 0 -80 -44 -138 -122 -161
-53 -16 -100 -4 -148 37 -95 81 -74 222 43 275 49 23 75 23 122 4z"/>
</g>
</svg>
